<svg xmlns="http://www.w3.org/2000/svg" viewBox="0 0 293.05 413.9"><defs><style>.cls-1{fill:#0071c0;}.cls-2{fill:#bbc8f9;}.cls-3{fill:#a5b5f7;}.cls-4{fill:#dde2fc;}.cls-5{fill:#ebebeb;}.cls-6{fill:#00abe5;}.cls-7{fill:#fff;}</style></defs><title>Asset 1</title><g id="Layer_2" data-name="Layer 2"><g id="Layer_1-2" data-name="Layer 1"><path class="cls-1" d="M293.05,81.55V83c-.3.41-.09.87-.15,1.31v1c-.06,5.42-.57,10.82-1.06,16.21-.45,4.87-.86,9.73-1.3,14.6q-.82,9.12-1.64,18.24c-.44,4.86-.86,9.73-1.3,14.59-.55,6.08-1.05,12.16-1.62,18.24-.56,5.93-1,11.87-1.59,17.81s-1.07,12.16-1.64,18.24c-.45,4.86-.84,9.73-1.29,14.59-.57,6.13-1.09,12.26-1.65,18.39-.54,5.84-1.05,11.67-1.57,17.51-.54,6.18-1.14,12.35-1.65,18.54s-1.12,12.25-1.62,18.39c-.39,4.77-.88,9.53-1.3,14.3s-.88,9.73-1.3,14.59c-.53,6.13-1.13,12.26-1.64,18.39s-1.13,12.26-1.63,18.39c-.38,4.72-.85,9.44-1.28,14.16-.24,2.72-.47,5.45-.72,8.17-.2,2.1-.25,2.26-2.42,2.87L234,390q-19.42,5.4-38.87,10.77l-44.51,12.35a23.49,23.49,0,0,1-3.31.61h-1.57c-4-.46-7.78-1.85-11.64-2.92q-36-10-71.93-19.94-16.74-4.67-33.49-9.29a3,3,0,0,1-2.58-3c-.41-4.92-.86-9.83-1.3-14.75-.56-6.17-1.14-12.35-1.66-18.53s-1.1-12.16-1.61-18.24c-.49-5.89-1-11.78-1.57-17.66-.45-5-.88-9.92-1.34-14.88-.56-6.13-1.07-12.26-1.64-18.39-.55-5.88-1-11.77-1.57-17.66-.56-6.17-1.14-12.35-1.66-18.53s-1.09-12.16-1.61-18.24-1.05-12-1.61-17.94c-.44-4.87-.86-9.73-1.29-14.6q-.83-9.1-1.64-18.23c-.44-4.87-.84-9.73-1.29-14.59-.58-6.13-1.08-12.26-1.65-18.39-.55-5.88-1-11.77-1.57-17.66-.54-6.08-1.13-12.15-1.63-18.24S.24,90,0,84c0-2.82,0-2.83,2.8-2.83H290.36C291.26,81.14,292.23,80.9,293.05,81.55Z"/><path d="M166.91,0c0,.49,0,1,0,1.46V15c0,1.25,0,1.26-1.28,1.26H142.11c-1.09,0-1.09,0-1.11,1.15,0,2.08,0,2.08,2.05,2.08h22c.34,0,.68,0,1,0,.54,0,.83.16.78.75,0,.29,0,.59,0,.88v34a3.85,3.85,0,0,0,0,.59c.12.81-.28,1-1,1a8.58,8.58,0,0,0-.88,0h-41.5c-1.09,0-1.11,0-1.11-1.13V40.83c0-1.17,0-1.18,1.22-1.18h23c.34,0,.68,0,1,0s.57-.17.61-.6c.26-2.61.25-2.63-2.42-2.63H124c-.34,0-.68,0-1,0s-.6-.23-.58-.64,0-.69,0-1V1.61c0-.54,0-1.07-.05-1.61Z"/><path d="M220.3,0a3.56,3.56,0,0,0-.11,1.45V14.94c0,1.26,0,1.27-1.28,1.27h-23c-1.66,0-1.6-.22-1.59,1.56a8.58,8.58,0,0,1,0,.88c0,.55.15.84.74.8.35,0,.69,0,1,0h22.29a6.46,6.46,0,0,0,.88,0c.81-.11,1,.3,1,1a5.81,5.81,0,0,0,0,.59V55.36c0,1.26,0,1.27-1.28,1.27H177c-1.37,0-1.26.07-1.26-1.28V40.84c0-1.18,0-1.19,1.21-1.19h23c.34,0,.69,0,1,0s.55-.18.6-.61c.25-2.61.26-2.62-2.42-2.62h-21.7c-.34,0-.68,0-1,0-.61,0-.77-.26-.72-.79,0-.34,0-.68,0-1q0-17.3,0-34.6Z"/><path d="M113.52,0q0,8.5,0,17c0,.34,0,.69,0,1s-.16.64-.59.64H89.31c-.35,0-.69,0-1,0s-.65.14-.62.59c0,.14,0,.29,0,.44q0,8.2,0,16.42c0,1.1,0,1.12,1.11,1.12H113a.47.47,0,0,1,.53.54c0,.2,0,.4,0,.59V54.66c0,1.13,0,1.15-1.09,1.15H70.18c-1.13,0-1.14,0-1.14-1.27V21.84Q69,11.72,69,1.6a4.1,4.1,0,0,0-.1-1.6Z"/><path class="cls-2" d="M147.27,413.64a1.13,1.13,0,0,0,0,.26h-1.47a2,2,0,0,1,0-.25Z"/><path class="cls-3" d="M292.8,84.21c-.05-.43-.14-.86.25-1.19v1.17C293,84.31,292.89,84.32,292.8,84.21Z"/><path class="cls-4" d="M292.8,84.21l.25,0v.88h-.24C292.8,84.79,292.8,84.5,292.8,84.21Z"/><path class="cls-5" d="M146.4,350.37,116.49,342,72.75,329.89c-1.39-.38-1.41-.39-1.55-1.8-.38-4.08-.74-8.17-1.11-12.25-.45-5-.92-9.93-1.36-14.89-.33-3.69-.64-7.39-1-11.09-.45-5-.88-10-1.37-15-.3-2.94-.35-2.94,2.54-2.94h32.12c.39,0,.78,0,1.17,0,.56,0,.77.21.82.75.13,1.51.32,3,.45,4.52q.95,10.8,1.88,21.61c.2,2.37.21,2.37,2.43,3l36.9,9.95a3.66,3.66,0,0,0,2,.34c0,.09.08.17.13.26.09,2.19,0,4.39,0,6.58q0,14.42,0,28.82a3.47,3.47,0,0,1-.47,2.53A.19.19,0,0,1,146.4,350.37Z"/><path class="cls-5" d="M146.38,142.48c.64,0,1.27.05,1.9.05h89.07c1.14,0,1.14,0,.89,1.27a6.45,6.45,0,0,0-2.71-.49H149.06c-2.15,0-2.21.06-2.21,2.23v30.63c0,2.22.06,2.27,2.32,2.27,15.44,0,30.88,0,46.32,0,.86,0,2-.47,2.54.77a2.66,2.66,0,0,1-1.95.44H148.39a4.38,4.38,0,0,1-2-.4c-.63,0-1.27-.07-1.9-.07H59.33c-1.42,0-1.4,0-1.52-1.46q-.86-9.33-1.71-18.67c-.48-5.25-.94-10.5-1.43-15.75-.05-.58.09-.83.68-.81.39,0,.78,0,1.17,0h88C145.12,142.55,145.75,142.51,146.38,142.48Z"/><path class="cls-5" d="M146.43,253.56c-.64,0-1.27-.06-1.9-.06H66.4c-1.86,0-1.89,0-2.07-1.82-.34-3.59-.63-7.2-1-10.79-.45-5.11-.92-10.21-1.38-15.32-.23-2.58-.47-5.15-.67-7.73-.07-1,0-1,.92-1h82.52c.64,0,1.27,0,1.9-.07a2.92,2.92,0,0,1,2-.42h44.12a3,3,0,0,1,2,.39c.12.78-.53.69-.95.77a9.93,9.93,0,0,1-2,.07H148.91c-1.95,0-2.06.11-2.06,2.09q0,15.47,0,30.94a10.84,10.84,0,0,1-.12,2.48A1.2,1.2,0,0,1,146.43,253.56Z"/><path class="cls-6" d="M264.43,105.9q-30.36,0-60.71,0-27.72,0-55.44,0c-1.6,0-1.6,0-1.61,1.6v.88q0,16.13,0,32.26a2.8,2.8,0,0,1-.28,1.84c.71.79,1.65.48,2.49.48q43.14,0,86.29,0h1.46c.53,0,1,.11,1.15.7a30.93,30.93,0,0,1-.31,4.81c-.43,4.87-.83,9.73-1.29,14.59-.56,6-1,12.06-1.62,18.09-.46,4.91-.84,9.82-1.3,14.73-.58,6.13-1.09,12.26-1.65,18.38q-.66,7.22-1.28,14.44c-.54,6.18-1.12,12.35-1.66,18.53-.42,4.81-.87,9.62-1.29,14.44-.54,6.08-1.11,12.15-1.63,18.23-.43,4.86-.88,9.72-1.31,14.59-.53,6.08-1.1,12.15-1.63,18.23-.41,4.82-1,9.62-1.25,14.45a2.45,2.45,0,0,1-2.12,2.52c-3.32.83-6.6,1.8-9.9,2.71q-26.55,7.4-53.12,14.74c-3.24.9-6.53,1.66-9.71,2.79a.8.8,0,0,0-.3.42,2.79,2.79,0,0,1,.26,1.84q0,17.16,0,34.32a3.4,3.4,0,0,0,.21,1.78c4.05-1.11,8.09-2.18,12.11-3.31,6.37-1.77,12.73-3.6,19.1-5.37,7-1.93,14-3.8,21-5.73,7.46-2.07,14.88-4.23,22.34-6.27q10.64-2.89,21.24-5.87c.83-.23,1.2-.54,1.12-1.37a31.46,31.46,0,0,1,.37-4.65,33.91,33.91,0,0,1,.28-3.63c.42-2.59.51-5.21.77-7.82.16-1.68.34-3.38.42-5.08a20.1,20.1,0,0,1,.28-3.48,34.14,34.14,0,0,0,.45-4.49c.16-1.59.31-3.19.44-4.79a29.89,29.89,0,0,1,.29-3.92,37.91,37.91,0,0,0,.44-4.49c.16-1.58.32-3.19.44-4.79a28.38,28.38,0,0,1,.3-3.92,40.13,40.13,0,0,0,.44-4.49c.16-1.58.33-3.19.43-4.79a29.64,29.64,0,0,1,.31-3.77c.33-1.68.24-3.38.46-5.07.2-1.53.24-3.11.42-4.64.31-2.7.51-5.42.74-8.12s.61-5.4.71-8.13a24.33,24.33,0,0,1,.3-3.62,38.65,38.65,0,0,0,.46-4.78c.11-1.65.32-3.29.43-4.94a25.25,25.25,0,0,1,.28-3.48,42.73,42.73,0,0,0,.47-4.78c.15-1.64.32-3.29.43-4.94a27,27,0,0,1,.27-3.48c.32-1.68.33-3.38.49-5.07.14-1.5.26-3,.42-4.5.13-1.21,0-2.44.26-3.63.32-1.68.33-3.38.49-5.07.14-1.49.25-3,.4-4.5.32-3,.46-6.1.84-9.13.18-1.4.11-2.83.34-4.21.28-1.59.32-3.19.46-4.78s.24-3.31.42-4.93c.28-2.61.52-5.22.74-7.82.24-2.81.58-5.61.71-8.43a20.82,20.82,0,0,1,.31-3.62,37.91,37.91,0,0,0,.44-4.49c.16-1.59.32-3.2.44-4.79a28.26,28.26,0,0,1,.29-3.92,42.91,42.91,0,0,0,.45-4.63c.17-1.59.33-3.2.44-4.8a27,27,0,0,1,.27-3.48c.34-1.77.31-3.57.49-5.36.15-1.49.22-3,.41-4.5.34-2.7.46-5.41.74-8.11.16-1.59.36-3.19.42-4.8a29,29,0,0,1,.27-3.48c.44-2.69.46-5.41.79-8.11.25-2,.3-4.06.6-6.08S266.43,105.9,264.43,105.9Z"/><path class="cls-6" d="M146.43,253.56a3,3,0,0,1,.24,1.72v29.18q0,13.79,0,27.57a.12.12,0,0,1-.05.14c.74.4,1.44,0,2.13-.16l13.87-3.73q11.38-3.09,22.79-6.15c2.29-.62,2.47-.77,2.65-3,.21-2.63.45-5.25.69-7.88.54-5.93,1-11.87,1.58-17.8s1-11.87,1.6-17.8c.21-2.2-.21-2.6-2.41-2.6h-41.2a2.82,2.82,0,0,0-2,.41A.24.24,0,0,1,146.43,253.56Z"/><path class="cls-6" d="M146.66,216.73c.59,0,1.17.06,1.75.06h46.37a1.6,1.6,0,0,0,.68-1.39c.16-2.39.44-4.76.64-7.15.43-5.06.93-10.11,1.34-15.17.35-4.19.88-8.36,1-12.56,0-.46.34-1.12-.47-1.32-.59,0-1.17,0-1.76,0H148.15c-.58,0-1.17,0-1.75.05a2.57,2.57,0,0,1,.27,1.56Q146.67,198.8,146.66,216.73Z"/><path class="cls-7" d="M194.78,216.8a24.43,24.43,0,0,0,.5-4.51c.68-7.2,1.27-14.4,1.9-21.6.3-3.51.62-7,.93-10.51,0-.33.21-.68-.11-1-.5-.48-1.12-.26-1.68-.26H148.39c-2.15,0-2,.21-2-1.94V144.6c0-1.83-.1-1.75,1.76-1.75h83.7c1.76,0,3.52,0,5.28,0,.72,0,1.12.21,1.12,1-.06,3.13-.51,6.23-.75,9.35-.29,3.84-.69,7.68-1,11.53q-.7,7.73-1.39,15.47-.63,7.08-1.25,14.16-.69,7.74-1.39,15.48-.64,7.22-1.28,14.45-.67,7.44-1.36,14.89-.63,7.08-1.25,14.16c-.46,5.16-.94,10.32-1.39,15.48-.44,4.86-.85,9.73-1.28,14.6s-.91,9.92-1.35,14.89q-.49,5.48-1,11l-1.38,15.32c-.12,1.27-.29,2.53-.32,3.8,0,.89-.35,1.24-1.21,1.48-6.18,1.67-12.33,3.41-18.49,5.12l-53.78,14.89a4.37,4.37,0,0,1-2,.39q0-18.11,0-36.19a3.39,3.39,0,0,1,.26-1.86L163,307.71l23.05-6.22c1.29-.35,1.32-.35,1.45-1.72.37-3.89.72-7.78,1.08-11.67.46-5.11.93-10.22,1.38-15.33q.64-7.31,1.28-14.6c.11-1.27.2-2.54.33-3.8.06-.62-.13-.93-.79-.88-.39,0-.78,0-1.17,0H148.13c-.58,0-1.17,0-1.75-.07V218.84c0-1.86-.1-1.77,1.74-1.77q22.49,0,45,0C193.66,217.06,194.28,217.28,194.78,216.8Z"/></g></g></svg>